{
    "asset" : {
        "generator" : "Khronos glTF Blender I/O v1.6.16",
        "version" : "2.0"
    },
    "scene" : 0,
    "scenes" : [
        {
            "name" : "Scene",
            "nodes" : [
                2
            ]
        }
    ],
    "nodes" : [
        {
            "mesh" : 0,
            "name" : "Rim"
        },
        {
            "mesh" : 1,
            "name" : "Tyre"
        },
        {
            "children" : [
                0,
                1
            ],
            "name" : "Wheel"
        }
    ],
    "materials" : [
        {
            "doubleSided" : true,
            "name" : "Material.014",
            "pbrMetallicRoughness" : {
                "baseColorFactor" : [
                    0.23944218456745148,
                    0.23944218456745148,
                    0.23944218456745148,
                    1
                ],
                "metallicFactor" : 0.8607590198516846,
                "roughnessFactor" : 0.46323472261428833
            }
        },
        {
            "doubleSided" : true,
            "name" : "Material.016",
            "pbrMetallicRoughness" : {
                "baseColorFactor" : [
                    0.19019541144371033,
                    0.19019541144371033,
                    0.19019541144371033,
                    1
                ],
                "baseColorTexture" : {
                    "index" : 0
                },
                "metallicFactor" : 0.7678118944168091,
                "roughnessFactor" : 0.43340232968330383
            }
        }
    ],
    "meshes" : [
        {
            "name" : "Object_12.002",
            "primitives" : [
                {
                    "attributes" : {
                        "POSITION" : 0,
                        "NORMAL" : 1,
                        "TEXCOORD_0" : 2
                    },
                    "indices" : 3,
                    "material" : 0
                }
            ]
        },
        {
            "name" : "Object_11.001",
            "primitives" : [
                {
                    "attributes" : {
                        "POSITION" : 4,
                        "NORMAL" : 5,
                        "TEXCOORD_0" : 6
                    },
                    "indices" : 7,
                    "material" : 1
                }
            ]
        }
    ],
    "textures" : [
        {
            "sampler" : 0,
            "source" : 0
        }
    ],
    "images" : [
        {
            "bufferView" : 8,
            "mimeType" : "image/png",
            "name" : "Material.010_baseColor"
        }
    ],
    "accessors" : [
        {
            "bufferView" : 0,
            "componentType" : 5126,
            "count" : 2486,
            "max" : [
                -0.06609487533569336,
                0.18916398286819458,
                0.18732304871082306
            ],
            "min" : [
                -0.12582087516784668,
                -0.18916398286819458,
                -0.18731807172298431
            ],
            "type" : "VEC3"
        },
        {
            "bufferView" : 1,
            "componentType" : 5126,
            "count" : 2486,
            "type" : "VEC3"
        },
        {
            "bufferView" : 2,
            "componentType" : 5126,
            "count" : 2486,
            "type" : "VEC2"
        },
        {
            "bufferView" : 3,
            "componentType" : 5123,
            "count" : 11808,
            "type" : "SCALAR"
        },
        {
            "bufferView" : 4,
            "componentType" : 5126,
            "count" : 1016,
            "max" : [
                0.12056316435337067,
                0.23501147329807281,
                0.23267902433872223
            ],
            "min" : [
                -0.12545788288116455,
                -0.23501147329807281,
                -0.2326730340719223
            ],
            "type" : "VEC3"
        },
        {
            "bufferView" : 5,
            "componentType" : 5126,
            "count" : 1016,
            "type" : "VEC3"
        },
        {
            "bufferView" : 6,
            "componentType" : 5126,
            "count" : 1016,
            "type" : "VEC2"
        },
        {
            "bufferView" : 7,
            "componentType" : 5123,
            "count" : 4320,
            "type" : "SCALAR"
        }
    ],
    "bufferViews" : [
        {
            "buffer" : 0,
            "byteLength" : 29832,
            "byteOffset" : 0
        },
        {
            "buffer" : 0,
            "byteLength" : 29832,
            "byteOffset" : 29832
        },
        {
            "buffer" : 0,
            "byteLength" : 19888,
            "byteOffset" : 59664
        },
        {
            "buffer" : 0,
            "byteLength" : 23616,
            "byteOffset" : 79552
        },
        {
            "buffer" : 0,
            "byteLength" : 12192,
            "byteOffset" : 103168
        },
        {
            "buffer" : 0,
            "byteLength" : 12192,
            "byteOffset" : 115360
        },
        {
            "buffer" : 0,
            "byteLength" : 8128,
            "byteOffset" : 127552
        },
        {
            "buffer" : 0,
            "byteLength" : 8640,
            "byteOffset" : 135680
        },
        {
            "buffer" : 0,
            "byteLength" : 662389,
            "byteOffset" : 144320
        }
    ],
    "samplers" : [
        {
            "magFilter" : 9729,
            "minFilter" : 9987
        }
    ],
    "buffers" : [
        {
            "byteLength" : 806712,
            "uri" : "data:application/octet-stream;base64,"
        }
    ]
}
